<?xml version="1.0" encoding="UTF-8"?>
<svg width="160" height="160" version="1.1" viewBox="0 -960 960 960" xmlns="http://www.w3.org/2000/svg">
 <path d="m480-80q-139-35-229.5-159.5t-90.5-276.5v-244l320-120 320 120v244q0 152-90.5 276.5t-229.5 159.5z" fill="#204324"/>
 <path d="m305.9-594.25v141.7h10.656q14.112 0 23.04-4.032t13.824-12.672 6.624-22.176q2.016-13.536 2.016-32.544 0-18.72-2.016-31.968-1.728-13.248-6.912-21.6-4.896-8.64-13.536-12.672t-22.176-4.032zm-32.256 168.19v-195.26h44.64q21.024 0 35.424 5.472 14.688 5.472 23.616 17.28 9.216 11.808 13.248 30.24 4.32 18.144 4.32 44.064 0 27.36-4.32 46.08t-13.824 30.24q-9.216 11.52-23.904 16.704t-35.712 5.184zm217.44-195.26 55.584 195.26h-33.408l-12.96-50.4h-52.416l-12.384 50.4h-32.832l53.856-195.26zm2.88 118.94-15.552-67.968-4.032-21.312-3.168 21.312-16.992 67.968zm140.83 76.32h-32.256v-168.19h-51.552v-27.072h135.36v27.072h-51.552z" fill="#fff" stroke-width="2" aria-label="DAT"/>
</svg>
