<?xml version="1.0" encoding="UTF-8"?>
<svg width="24px" height="24px" fill="#658772" version="1.1" viewBox="0 -960 960 960" xmlns="http://www.w3.org/2000/svg">
 <path d="m240-100c-38.667 0-71.667-13.667-99-41s-41-60.333-41-99 13.667-71.667 41-99 60.333-41 99-41 71.667 13.667 99 41 41 60.333 41 99c0 14.667-2.1667 28.833-6.5 42.5s-10.833 26.5-19.5 38.5v-27c20 8.6667 40.667 15.167 62 19.5s42.667 6.5 64 6.5c89.333 0 165-31 227-93s93-137.67 93-227h80c0 55.333-10.5 107.33-31.5 156s-49.5 91-85.5 127-78.333 64.5-127 85.5-100.67 31.5-156 31.5c-30 0-59.333-3.1667-88-9.5s-56.333-15.833-83-28.5c-10.667 6-21.833 10.5-33.5 13.5s-23.5 4.5-35.5 4.5zm42.5-97.5c11.667-11.667 17.5-25.833 17.5-42.5s-5.8333-30.833-17.5-42.5-25.833-17.5-42.5-17.5-30.833 5.8333-42.5 17.5-17.5 25.833-17.5 42.5 5.8333 30.833 17.5 42.5 25.833 17.5 42.5 17.5 30.833-5.8333 42.5-17.5zm-202.5-282.5c0-55.333 10.5-107.33 31.5-156s49.5-91 85.5-127 78.333-64.5 127-85.5 100.67-31.5 156-31.5c30 0 59.333 3.1667 88 9.5s56.333 15.833 83 28.5c10.667-6 21.833-10.5 33.5-13.5s23.5-4.5 35.5-4.5c38.667 0 71.667 13.667 99 41s41 60.333 41 99-13.667 71.667-41 99-60.333 41-99 41-71.667-13.667-99-41-41-60.333-41-99c0-14.667 2.1667-28.833 6.5-42.5s10.833-26.5 19.5-38.5v27c-20-8.6667-40.667-15.167-62-19.5s-42.667-6.5-64-6.5c-89.333 0-165 31-227 93s-93 137.67-93 227zm640-180c16.667 0 30.833-5.8333 42.5-17.5s17.5-25.833 17.5-42.5-5.8333-30.833-17.5-42.5-25.833-17.5-42.5-17.5-30.833 5.8333-42.5 17.5-17.5 25.833-17.5 42.5 5.8333 30.833 17.5 42.5 25.833 17.5 42.5 17.5z" />
</svg>
