<?xml version="1.0" encoding="UTF-8" standalone="no"?>
<svg
   height="24px"
   viewBox="0 -960 960 960"
   width="24px"
   fill="#e3e3e3"
   version="1.1"
   id="svg1"
   sodipodi:docname="orbit_24dp_E3E3E3_FILL0_wght400_GRAD0_opsz24.svg"
   inkscape:version="1.4 (e7c3feb1, 2024-10-09)"
   xmlns:inkscape="http://www.inkscape.org/namespaces/inkscape"
   xmlns:sodipodi="http://sodipodi.sourceforge.net/DTD/sodipodi-0.dtd"
   xmlns="http://www.w3.org/2000/svg"
   xmlns:svg="http://www.w3.org/2000/svg">
  <defs
     id="defs1" />
  <sodipodi:namedview
     id="namedview1"
     pagecolor="#ffffff"
     bordercolor="#000000"
     borderopacity="0.25"
     inkscape:showpageshadow="2"
     inkscape:pageopacity="0.0"
     inkscape:pagecheckerboard="0"
     inkscape:deskcolor="#d1d1d1"
     inkscape:zoom="18.425"
     inkscape:cx="9.7964722"
     inkscape:cy="8.7109905"
     inkscape:window-width="1200"
     inkscape:window-height="1186"
     inkscape:window-x="760"
     inkscape:window-y="131"
     inkscape:window-maximized="0"
     inkscape:current-layer="svg1" />
  <path
     d="m 240,-100 c -38.66667,0 -71.66667,-13.66667 -99,-41 -27.33333,-27.33333 -41,-60.33333 -41,-99 0,-38.66667 13.66667,-71.66667 41,-99 27.33333,-27.33333 60.33333,-41 99,-41 38.66667,0 71.66667,13.66667 99,41 27.33333,27.33333 41,60.33333 41,99 0,14.66667 -2.16667,28.83333 -6.5,42.5 -4.33333,13.66667 -10.83333,26.5 -19.5,38.5 v -27 c 20,8.66667 40.66667,15.16667 62,19.5 21.33333,4.33333 42.66667,6.5 64,6.5 89.33333,0 165,-31 227,-93 62,-62 93,-137.66667 93,-227 h 80 c 0,55.33333 -10.5,107.33333 -31.5,156 -21,48.66667 -49.5,91 -85.5,127 -36,36 -78.33333,64.5 -127,85.5 -48.66667,21 -100.66667,31.5 -156,31.5 -30,0 -59.33333,-3.166667 -88,-9.5 -28.66667,-6.333333 -56.33333,-15.83333 -83,-28.5 -10.66667,6 -21.83333,10.5 -33.5,13.5 -11.66667,3 -23.5,4.5 -35.5,4.5 z m 42.5,-97.5 c 11.66667,-11.66667 17.5,-25.83333 17.5,-42.5 0,-16.66667 -5.83333,-30.83333 -17.5,-42.5 -11.66667,-11.66667 -25.83333,-17.5 -42.5,-17.5 -16.66667,0 -30.83333,5.83333 -42.5,17.5 -11.66667,11.66667 -17.5,25.83333 -17.5,42.5 0,16.66667 5.83333,30.83333 17.5,42.5 11.66667,11.66667 25.83333,17.5 42.5,17.5 16.66667,0 30.83333,-5.83333 42.5,-17.5 z M 80,-480 c 0,-55.33333 10.5,-107.33333 31.5,-156 21,-48.66667 49.5,-91 85.5,-127 36,-36 78.33333,-64.5 127,-85.5 48.66667,-21 100.66667,-31.5 156,-31.5 30,0 59.33333,3.16667 88,9.5 28.66667,6.33333 56.33333,15.83333 83,28.5 10.66667,-6 21.83333,-10.5 33.5,-13.5 11.66667,-3 23.5,-4.5 35.5,-4.5 38.66667,0 71.66667,13.66667 99,41 27.33333,27.33333 41,60.33333 41,99 0,38.66667 -13.66667,71.66667 -41,99 -27.33333,27.33333 -60.33333,41 -99,41 -38.66667,0 -71.66667,-13.66667 -99,-41 -27.33333,-27.33333 -41,-60.33333 -41,-99 0,-14.66667 2.16667,-28.83333 6.5,-42.5 4.33333,-13.66667 10.83333,-26.5 19.5,-38.5 v 27 c -20,-8.66667 -40.66667,-15.16667 -62,-19.5 -21.33333,-4.33333 -42.66667,-6.5 -64,-6.5 -89.33333,0 -165,31 -227,93 -62,62 -93,137.66667 -93,227 z m 640,-180 c 16.66667,0 30.83333,-5.83333 42.5,-17.5 11.66667,-11.66667 17.5,-25.83333 17.5,-42.5 0,-16.66667 -5.83333,-30.83333 -17.5,-42.5 -11.66667,-11.66667 -25.83333,-17.5 -42.5,-17.5 -16.66667,0 -30.83333,5.83333 -42.5,17.5 -11.66667,11.66667 -17.5,25.83333 -17.5,42.5 0,16.66667 5.83333,30.83333 17.5,42.5 11.66667,11.66667 25.83333,17.5 42.5,17.5 z"
     id="path1"
     sodipodi:nodetypes="ssssssssccsssccssssscssssssssssscssssscsssssssssccsssccsssssssss"
     style="fill:#658772;fill-opacity:1" />
</svg>
